<?xml version="1.0" encoding="UTF-8" standalone="no"?>
<svg width="148.167mm" height="89.2528mm"
 viewBox="0 0 420 253"
 xmlns="http://www.w3.org/2000/svg" xmlns:xlink="http://www.w3.org/1999/xlink"  version="1.2" baseProfile="tiny">
<title>Qt SVG Document</title>
<desc>MATLAB, The MathWorks, Inc. Version 24.2.0.2773142 R2024b Update 2</desc>
<defs>
</defs>
<g fill="none" stroke="black" stroke-width="1" fill-rule="evenodd" stroke-linecap="square" stroke-linejoin="bevel" >

<g fill="#ffffff" fill-opacity="1" stroke="none" transform="matrix(0.5,0,0,0.5,0,0)"
font-family="MS Shell Dlg 2" font-size="8" font-weight="400" font-style="normal" 
>
<path vector-effect="none" fill-rule="evenodd" d="M0,0 L841,0 L841,507 L0,507 L0,0"/>
</g>

<g fill="#ffffff" fill-opacity="1" stroke="none" transform="matrix(5e-05,0,0,5e-05,0,0)"
font-family="MS Shell Dlg 2" font-size="8" font-weight="400" font-style="normal" 
>
<path vector-effect="none" fill-rule="evenodd" d="M1.09e+06,380000 L1.09e+06,4.5e+06 L7.6e+06,4.5e+06 L7.6e+06,380000 L1.09e+06,380000"/>
</g>

<g fill="#212121" fill-opacity="1" stroke="#212121" stroke-opacity="1" stroke-width="1" stroke-linecap="square" stroke-linejoin="bevel" transform="matrix(0.5,0,0,0.5,196.25,250.75)"
font-family="Helvetica" font-size="22" font-weight="400" font-style="normal" 
>
<text fill="#212121" fill-opacity="1" stroke="none" xml:space="preserve" x="0" y="0" font-family="Helvetica" font-size="22" font-weight="400" font-style="normal" 
 >Services</text>
</g>

<g fill="#212121" fill-opacity="1" stroke="#212121" stroke-opacity="1" stroke-width="1" stroke-linecap="butt" stroke-linejoin="round" transform="matrix(0.5,0,0,0.5,0,0)"
font-family="Helvetica" font-size="22" font-weight="400" font-style="normal" 
>
<polyline fill="none" vector-effect="none" points="109,450 760,450 " />
<polyline fill="none" vector-effect="none" points="284.845,450 284.845,443.49 " />
<polyline fill="none" vector-effect="none" points="434.5,450 434.5,443.49 " />
<polyline fill="none" vector-effect="none" points="584.155,450 584.155,443.49 " />
</g>

<g fill="#212121" fill-opacity="1" stroke="#212121" stroke-opacity="1" stroke-width="1" stroke-linecap="square" stroke-linejoin="bevel" transform="matrix(0.5,0,0,0.5,103.672,238.5)"
font-family="Helvetica" font-size="20" font-weight="400" font-style="normal" 
>
<text fill="#212121" fill-opacity="1" stroke="none" xml:space="preserve" x="0" y="0" font-family="Helvetica" font-size="20" font-weight="400" font-style="normal" 
 >Unicast Service 1</text>
</g>

<g fill="#212121" fill-opacity="1" stroke="#212121" stroke-opacity="1" stroke-width="1" stroke-linecap="square" stroke-linejoin="bevel" transform="matrix(0.5,0,0,0.5,178.5,238.5)"
font-family="Helvetica" font-size="20" font-weight="400" font-style="normal" 
>
<text fill="#212121" fill-opacity="1" stroke="none" xml:space="preserve" x="0" y="0" font-family="Helvetica" font-size="20" font-weight="400" font-style="normal" 
 >Unicast Service 2</text>
</g>

<g fill="#212121" fill-opacity="1" stroke="#212121" stroke-opacity="1" stroke-width="1" stroke-linecap="square" stroke-linejoin="bevel" transform="matrix(0.5,0,0,0.5,256.328,238.5)"
font-family="Helvetica" font-size="20" font-weight="400" font-style="normal" 
>
<text fill="#212121" fill-opacity="1" stroke="none" xml:space="preserve" x="0" y="0" font-family="Helvetica" font-size="20" font-weight="400" font-style="normal" 
 >Anycast Service</text>
</g>

<g fill="#212121" fill-opacity="1" stroke="#212121" stroke-opacity="1" stroke-width="1" stroke-linecap="square" stroke-linejoin="bevel" transform="matrix(0,-0.5,0.5,0,33.75,176.5)"
font-family="Helvetica" font-size="22" font-weight="400" font-style="normal" 
>
<text fill="#212121" fill-opacity="1" stroke="none" xml:space="preserve" x="0" y="0" font-family="Helvetica" font-size="22" font-weight="400" font-style="normal" 
 >Round-Trip Delay (ms)</text>
</g>

<g fill="#212121" fill-opacity="1" stroke="#212121" stroke-opacity="1" stroke-width="1" stroke-linecap="butt" stroke-linejoin="round" transform="matrix(0.5,0,0,0.5,0,0)"
font-family="Helvetica" font-size="22" font-weight="400" font-style="normal" 
>
<polyline fill="none" vector-effect="none" points="109,450 109,38 " />
<polyline fill="none" vector-effect="none" points="109,450 115.51,450 " />
<polyline fill="none" vector-effect="none" points="109,381.333 115.51,381.333 " />
<polyline fill="none" vector-effect="none" points="109,312.667 115.51,312.667 " />
<polyline fill="none" vector-effect="none" points="109,244 115.51,244 " />
<polyline fill="none" vector-effect="none" points="109,175.333 115.51,175.333 " />
<polyline fill="none" vector-effect="none" points="109,106.667 115.51,106.667 " />
<polyline fill="none" vector-effect="none" points="109,38 115.51,38 " />
</g>

<g fill="#212121" fill-opacity="1" stroke="#212121" stroke-opacity="1" stroke-width="1" stroke-linecap="square" stroke-linejoin="bevel" transform="matrix(0.5,0,0,0.5,45,228.5)"
font-family="Helvetica" font-size="20" font-weight="400" font-style="normal" 
>
<text fill="#212121" fill-opacity="1" stroke="none" xml:space="preserve" x="0" y="0" font-family="Helvetica" font-size="20" font-weight="400" font-style="normal" 
 >0</text>
</g>

<g fill="#212121" fill-opacity="1" stroke="#212121" stroke-opacity="1" stroke-width="1" stroke-linecap="square" stroke-linejoin="bevel" transform="matrix(0.5,0,0,0.5,45,194.167)"
font-family="Helvetica" font-size="20" font-weight="400" font-style="normal" 
>
<text fill="#212121" fill-opacity="1" stroke="none" xml:space="preserve" x="0" y="0" font-family="Helvetica" font-size="20" font-weight="400" font-style="normal" 
 >2</text>
</g>

<g fill="#212121" fill-opacity="1" stroke="#212121" stroke-opacity="1" stroke-width="1" stroke-linecap="square" stroke-linejoin="bevel" transform="matrix(0.5,0,0,0.5,45,159.833)"
font-family="Helvetica" font-size="20" font-weight="400" font-style="normal" 
>
<text fill="#212121" fill-opacity="1" stroke="none" xml:space="preserve" x="0" y="0" font-family="Helvetica" font-size="20" font-weight="400" font-style="normal" 
 >4</text>
</g>

<g fill="#212121" fill-opacity="1" stroke="#212121" stroke-opacity="1" stroke-width="1" stroke-linecap="square" stroke-linejoin="bevel" transform="matrix(0.5,0,0,0.5,45,125.5)"
font-family="Helvetica" font-size="20" font-weight="400" font-style="normal" 
>
<text fill="#212121" fill-opacity="1" stroke="none" xml:space="preserve" x="0" y="0" font-family="Helvetica" font-size="20" font-weight="400" font-style="normal" 
 >6</text>
</g>

<g fill="#212121" fill-opacity="1" stroke="#212121" stroke-opacity="1" stroke-width="1" stroke-linecap="square" stroke-linejoin="bevel" transform="matrix(0.5,0,0,0.5,45,91.1667)"
font-family="Helvetica" font-size="20" font-weight="400" font-style="normal" 
>
<text fill="#212121" fill-opacity="1" stroke="none" xml:space="preserve" x="0" y="0" font-family="Helvetica" font-size="20" font-weight="400" font-style="normal" 
 >8</text>
</g>

<g fill="#212121" fill-opacity="1" stroke="#212121" stroke-opacity="1" stroke-width="1" stroke-linecap="square" stroke-linejoin="bevel" transform="matrix(0.5,0,0,0.5,39.5,56.8333)"
font-family="Helvetica" font-size="20" font-weight="400" font-style="normal" 
>
<text fill="#212121" fill-opacity="1" stroke="none" xml:space="preserve" x="0" y="0" font-family="Helvetica" font-size="20" font-weight="400" font-style="normal" 
 >10</text>
</g>

<g fill="#212121" fill-opacity="1" stroke="#212121" stroke-opacity="1" stroke-width="1" stroke-linecap="square" stroke-linejoin="bevel" transform="matrix(0.5,0,0,0.5,39.5,22.5)"
font-family="Helvetica" font-size="20" font-weight="400" font-style="normal" 
>
<text fill="#212121" fill-opacity="1" stroke="none" xml:space="preserve" x="0" y="0" font-family="Helvetica" font-size="20" font-weight="400" font-style="normal" 
 >12</text>
</g>

<g fill="#212121" fill-opacity="1" stroke="#212121" stroke-opacity="1" stroke-width="1" stroke-linecap="square" stroke-linejoin="bevel" transform="matrix(0.5,0,0,0.5,111.75,15.1217)"
font-family="Helvetica" font-size="22" font-weight="700" font-style="normal" 
>
<text fill="#212121" fill-opacity="1" stroke="none" xml:space="preserve" x="0" y="0" font-family="Helvetica" font-size="22" font-weight="700" font-style="normal" 
 >Round-Trip Delays by Service and Result</text>
</g>

<g fill="#212121" fill-opacity="1" stroke="#212121" stroke-opacity="1" stroke-width="1" stroke-linecap="butt" stroke-linejoin="round" transform="matrix(0.5,0,0,0.5,0,0)"
font-family="Helvetica" font-size="22" font-weight="700" font-style="normal" 
>
<polyline fill="none" vector-effect="none" points="109,450 760,450 " />
</g>

<g fill="#0072bd" fill-opacity="1" stroke="none" transform="matrix(5e-05,0,0,5e-05,0,0)"
font-family="Helvetica" font-size="22" font-weight="700" font-style="normal" 
>
<path vector-effect="none" fill-rule="evenodd" d="M2.28724e+06,2.63742e+06 L2.28724e+06,4.5e+06 L2.66138e+06,4.5e+06 L2.66138e+06,2.63742e+06 L2.28724e+06,2.63742e+06"/>
</g>

<g fill="#0072bd" fill-opacity="1" stroke="none" transform="matrix(5e-05,0,0,5e-05,0,0)"
font-family="Helvetica" font-size="22" font-weight="700" font-style="normal" 
>
<path vector-effect="none" fill-rule="evenodd" d="M3.78379e+06,2.47662e+06 L3.78379e+06,4.5e+06 L4.15793e+06,4.5e+06 L4.15793e+06,2.47662e+06 L3.78379e+06,2.47662e+06"/>
</g>

<g fill="#0072bd" fill-opacity="1" stroke="none" transform="matrix(5e-05,0,0,5e-05,0,0)"
font-family="Helvetica" font-size="22" font-weight="700" font-style="normal" 
>
<path vector-effect="none" fill-rule="evenodd" d="M5.28035e+06,3.46199e+06 L5.28035e+06,4.5e+06 L5.65448e+06,4.5e+06 L5.65448e+06,3.46199e+06 L5.28035e+06,3.46199e+06"/>
</g>

<g fill="none" stroke="#212121" stroke-opacity="1" stroke-width="1" stroke-linecap="butt" stroke-linejoin="miter" stroke-miterlimit="2" transform="matrix(0.5,0,0,0.5,0,0)"
font-family="Helvetica" font-size="22" font-weight="700" font-style="normal" 
>
<path vector-effect="none" fill-rule="evenodd" d="M228.724,450 L228.724,263.742 L266.138,263.742 L266.138,450 L228.724,450"/>
<path vector-effect="none" fill-rule="evenodd" d="M378.379,450 L378.379,247.662 L415.793,247.662 L415.793,450 L378.379,450"/>
<path vector-effect="none" fill-rule="evenodd" d="M528.034,450 L528.034,346.199 L565.448,346.199 L565.448,450 L528.034,450"/>
</g>

<g fill="#d95319" fill-opacity="1" stroke="none" transform="matrix(5e-05,0,0,5e-05,0,0)"
font-family="Helvetica" font-size="22" font-weight="700" font-style="normal" 
>
<path vector-effect="none" fill-rule="evenodd" d="M2.66138e+06,2.63742e+06 L2.66138e+06,4.5e+06 L3.03552e+06,4.5e+06 L3.03552e+06,2.63742e+06 L2.66138e+06,2.63742e+06"/>
</g>

<g fill="#d95319" fill-opacity="1" stroke="none" transform="matrix(5e-05,0,0,5e-05,0,0)"
font-family="Helvetica" font-size="22" font-weight="700" font-style="normal" 
>
<path vector-effect="none" fill-rule="evenodd" d="M4.15793e+06,2.47662e+06 L4.15793e+06,4.5e+06 L4.53207e+06,4.5e+06 L4.53207e+06,2.47662e+06 L4.15793e+06,2.47662e+06"/>
</g>

<g fill="#d95319" fill-opacity="1" stroke="none" transform="matrix(5e-05,0,0,5e-05,0,0)"
font-family="Helvetica" font-size="22" font-weight="700" font-style="normal" 
>
<path vector-effect="none" fill-rule="evenodd" d="M5.65448e+06,3.50491e+06 L5.65448e+06,4.5e+06 L6.02862e+06,4.5e+06 L6.02862e+06,3.50491e+06 L5.65448e+06,3.50491e+06"/>
</g>

<g fill="none" stroke="#212121" stroke-opacity="1" stroke-width="1" stroke-linecap="butt" stroke-linejoin="miter" stroke-miterlimit="2" transform="matrix(0.5,0,0,0.5,0,0)"
font-family="Helvetica" font-size="22" font-weight="700" font-style="normal" 
>
<path vector-effect="none" fill-rule="evenodd" d="M266.138,450 L266.138,263.742 L303.552,263.742 L303.552,450 L266.138,450"/>
<path vector-effect="none" fill-rule="evenodd" d="M415.793,450 L415.793,247.662 L453.207,247.662 L453.207,450 L415.793,450"/>
<path vector-effect="none" fill-rule="evenodd" d="M565.448,450 L565.448,350.491 L602.862,350.491 L602.862,450 L565.448,450"/>
</g>

<g fill="#edb120" fill-opacity="1" stroke="none" transform="matrix(5e-05,0,0,5e-05,0,0)"
font-family="Helvetica" font-size="22" font-weight="700" font-style="normal" 
>
<path vector-effect="none" fill-rule="evenodd" d="M3.03552e+06,2.63742e+06 L3.03552e+06,4.5e+06 L3.40966e+06,4.5e+06 L3.40966e+06,2.63742e+06 L3.03552e+06,2.63742e+06"/>
</g>

<g fill="#edb120" fill-opacity="1" stroke="none" transform="matrix(5e-05,0,0,5e-05,0,0)"
font-family="Helvetica" font-size="22" font-weight="700" font-style="normal" 
>
<path vector-effect="none" fill-rule="evenodd" d="M4.53207e+06,2.47662e+06 L4.53207e+06,4.5e+06 L4.90621e+06,4.5e+06 L4.90621e+06,2.47662e+06 L4.53207e+06,2.47662e+06"/>
</g>

<g fill="#edb120" fill-opacity="1" stroke="none" transform="matrix(5e-05,0,0,5e-05,0,0)"
font-family="Helvetica" font-size="22" font-weight="700" font-style="normal" 
>
<path vector-effect="none" fill-rule="evenodd" d="M6.02862e+06,3.63308e+06 L6.02862e+06,4.5e+06 L6.40276e+06,4.5e+06 L6.40276e+06,3.63308e+06 L6.02862e+06,3.63308e+06"/>
</g>

<g fill="none" stroke="#212121" stroke-opacity="1" stroke-width="1" stroke-linecap="butt" stroke-linejoin="miter" stroke-miterlimit="2" transform="matrix(0.5,0,0,0.5,0,0)"
font-family="Helvetica" font-size="22" font-weight="700" font-style="normal" 
>
<path vector-effect="none" fill-rule="evenodd" d="M303.552,450 L303.552,263.742 L340.966,263.742 L340.966,450 L303.552,450"/>
<path vector-effect="none" fill-rule="evenodd" d="M453.207,450 L453.207,247.662 L490.621,247.662 L490.621,450 L453.207,450"/>
<path vector-effect="none" fill-rule="evenodd" d="M602.862,450 L602.862,363.308 L640.276,363.308 L640.276,450 L602.862,450"/>
</g>

<g fill="none" stroke="#ff0000" stroke-opacity="1" stroke-width="1" stroke-linecap="butt" stroke-linejoin="miter" stroke-miterlimit="2" transform="matrix(0.5,0,0,0.5,0,0)"
font-family="Helvetica" font-size="22" font-weight="700" font-style="normal" 
>
<path vector-effect="none" fill-rule="evenodd" d="M253.431,139.627 C253.431,136.313 250.745,133.627 247.431,133.627 C244.117,133.627 241.431,136.313 241.431,139.627 C241.431,142.94 244.117,145.627 247.431,145.627 C250.745,145.627 253.431,142.94 253.431,139.627 "/>
<path vector-effect="none" fill-rule="evenodd" d="M403.086,69.93 C403.086,66.6163 400.4,63.93 397.086,63.93 C393.773,63.93 391.086,66.6163 391.086,69.93 C391.086,73.2437 393.773,75.93 397.086,75.93 C400.4,75.93 403.086,73.2437 403.086,69.93 "/>
<path vector-effect="none" fill-rule="evenodd" d="M552.741,229.923 C552.741,226.61 550.055,223.923 546.741,223.923 C543.428,223.923 540.741,226.61 540.741,229.923 C540.741,233.237 543.428,235.923 546.741,235.923 C550.055,235.923 552.741,233.237 552.741,229.923 "/>
<path vector-effect="none" fill-rule="evenodd" d="M290.845,139.627 C290.845,136.313 288.159,133.627 284.845,133.627 C281.531,133.627 278.845,136.313 278.845,139.627 C278.845,142.94 281.531,145.627 284.845,145.627 C288.159,145.627 290.845,142.94 290.845,139.627 "/>
<path vector-effect="none" fill-rule="evenodd" d="M440.5,69.93 C440.5,66.6163 437.814,63.93 434.5,63.93 C431.186,63.93 428.5,66.6163 428.5,69.93 C428.5,73.2437 431.186,75.93 434.5,75.93 C437.814,75.93 440.5,73.2437 440.5,69.93 "/>
<path vector-effect="none" fill-rule="evenodd" d="M590.155,298.247 C590.155,294.933 587.469,292.247 584.155,292.247 C580.841,292.247 578.155,294.933 578.155,298.247 C578.155,301.56 580.841,304.247 584.155,304.247 C587.469,304.247 590.155,301.56 590.155,298.247 "/>
<path vector-effect="none" fill-rule="evenodd" d="M328.259,139.627 C328.259,136.313 325.572,133.627 322.259,133.627 C318.945,133.627 316.259,136.313 316.259,139.627 C316.259,142.94 318.945,145.627 322.259,145.627 C325.572,145.627 328.259,142.94 328.259,139.627 "/>
<path vector-effect="none" fill-rule="evenodd" d="M477.914,69.93 C477.914,66.6163 475.227,63.93 471.914,63.93 C468.6,63.93 465.914,66.6163 465.914,69.93 C465.914,73.2437 468.6,75.93 471.914,75.93 C475.227,75.93 477.914,73.2437 477.914,69.93 "/>
<path vector-effect="none" fill-rule="evenodd" d="M627.569,281.767 C627.569,278.453 624.883,275.767 621.569,275.767 C618.255,275.767 615.569,278.453 615.569,281.767 C615.569,285.08 618.255,287.767 621.569,287.767 C624.883,287.767 627.569,285.08 627.569,281.767 "/>
</g>

<g fill="#ffffff" fill-opacity="1" stroke="none" transform="matrix(5e-05,0,0,5e-05,0,0)"
font-family="Helvetica" font-size="22" font-weight="700" font-style="normal" 
>
<path vector-effect="none" fill-rule="evenodd" d="M5.64e+06,540000 L5.64e+06,1.24e+06 L7.44e+06,1.24e+06 L7.44e+06,540000 L5.64e+06,540000"/>
</g>

<g fill="#212121" fill-opacity="1" stroke="#212121" stroke-opacity="1" stroke-width="1" stroke-linecap="square" stroke-linejoin="bevel" transform="matrix(0.5,0,0,0.5,317.25,36.9521)"
font-family="Helvetica" font-size="18" font-weight="400" font-style="normal" 
>
<text fill="#212121" fill-opacity="1" stroke="none" xml:space="preserve" x="0" y="0" font-family="Helvetica" font-size="18" font-weight="400" font-style="normal" 
 >Question 1.c</text>
</g>

<g fill="#0072bd" fill-opacity="1" stroke="none" transform="matrix(5e-05,0,0,5e-05,0,0)"
font-family="Helvetica" font-size="18" font-weight="400" font-style="normal" 
>
<path vector-effect="none" fill-rule="evenodd" d="M5.7e+06,595851 L5.7e+06,752234 L6.3e+06,752234 L6.3e+06,595851 L5.7e+06,595851"/>
</g>

<g fill="none" stroke="#212121" stroke-opacity="1" stroke-width="1" stroke-linecap="butt" stroke-linejoin="miter" stroke-miterlimit="2" transform="matrix(0.5,0,0,0.5,0,0)"
font-family="Helvetica" font-size="18" font-weight="400" font-style="normal" 
>
<path vector-effect="none" fill-rule="evenodd" d="M570,75.2234 L570,59.5851 L630,59.5851 L630,75.2234 L570,75.2234"/>
</g>

<g fill="#212121" fill-opacity="1" stroke="#212121" stroke-opacity="1" stroke-width="1" stroke-linecap="square" stroke-linejoin="bevel" transform="matrix(0.5,0,0,0.5,317.25,47.75)"
font-family="Helvetica" font-size="18" font-weight="400" font-style="normal" 
>
<text fill="#212121" fill-opacity="1" stroke="none" xml:space="preserve" x="0" y="0" font-family="Helvetica" font-size="18" font-weight="400" font-style="normal" 
 >Question 1.d</text>
</g>

<g fill="#d95319" fill-opacity="1" stroke="none" transform="matrix(5e-05,0,0,5e-05,0,0)"
font-family="Helvetica" font-size="18" font-weight="400" font-style="normal" 
>
<path vector-effect="none" fill-rule="evenodd" d="M5.7e+06,811808 L5.7e+06,968191 L6.3e+06,968191 L6.3e+06,811808 L5.7e+06,811808"/>
</g>

<g fill="none" stroke="#212121" stroke-opacity="1" stroke-width="1" stroke-linecap="butt" stroke-linejoin="miter" stroke-miterlimit="2" transform="matrix(0.5,0,0,0.5,0,0)"
font-family="Helvetica" font-size="18" font-weight="400" font-style="normal" 
>
<path vector-effect="none" fill-rule="evenodd" d="M570,96.8191 L570,81.1809 L630,81.1809 L630,96.8191 L570,96.8191"/>
</g>

<g fill="#212121" fill-opacity="1" stroke="#212121" stroke-opacity="1" stroke-width="1" stroke-linecap="square" stroke-linejoin="bevel" transform="matrix(0.5,0,0,0.5,317.25,58.5479)"
font-family="Helvetica" font-size="18" font-weight="400" font-style="normal" 
>
<text fill="#212121" fill-opacity="1" stroke="none" xml:space="preserve" x="0" y="0" font-family="Helvetica" font-size="18" font-weight="400" font-style="normal" 
 >Question 1.e</text>
</g>

<g fill="#edb120" fill-opacity="1" stroke="none" transform="matrix(5e-05,0,0,5e-05,0,0)"
font-family="Helvetica" font-size="18" font-weight="400" font-style="normal" 
>
<path vector-effect="none" fill-rule="evenodd" d="M5.7e+06,1.02777e+06 L5.7e+06,1.18415e+06 L6.3e+06,1.18415e+06 L6.3e+06,1.02777e+06 L5.7e+06,1.02777e+06"/>
</g>

<g fill="none" stroke="#212121" stroke-opacity="1" stroke-width="1" stroke-linecap="butt" stroke-linejoin="miter" stroke-miterlimit="2" transform="matrix(0.5,0,0,0.5,0,0)"
font-family="Helvetica" font-size="18" font-weight="400" font-style="normal" 
>
<path vector-effect="none" fill-rule="evenodd" d="M570,118.415 L570,102.777 L630,102.777 L630,118.415 L570,118.415"/>
<path vector-effect="none" fill-rule="evenodd" d="M564,124 L564,54 L744,54 L744,124 L564,124"/>
</g>
</g>
</svg>
